<svg xmlns="http://www.w3.org/2000/svg" viewBox="0 0 60 30">
  <rect width="60" height="30" fill="#012169"/>
  <g fill="#fff">
    <path d="M0,0 v3.33 l20,10 v-3.33z"/>
    <path d="M0,0 h6.67 l20,10 h-6.67z"/>
    <path d="M26.67,0 v3.33 l-20,10 v-3.33z"/>
    <path d="M26.67,0 h-6.67 l-20,10 h6.67z"/>
    <path d="M0,13.33 v3.33 l20,-10 v-3.33z"/>
    <path d="M0,16.67 h6.67 l20,-10 h-6.67z"/>
    <path d="M26.67,13.33 v3.33 l-20,-10 v-3.33z"/>
    <path d="M26.67,16.67 h-6.67 l-20,-10 h6.67z"/>
  </g>
  <g fill="#C8102E">
    <path d="M0,0 L26.67,13.33 v3.33 L0,3.33z"/>
    <path d="M26.67,0 L0,13.33 v3.33 L26.67,3.33z"/>
  </g>
  <path stroke="#fff" stroke-width="3.33" d="M13.33,0 v16.67 M0,8.33 h26.67"/>
  <path stroke="#C8102E" stroke-width="2" d="M13.33,0 v16.67 M0,8.33 h26.67"/>
  <g fill="#fff">
    <polygon points="45,19 46,21 48,21 46.5,22.5 47,24.5 45,23 43,24.5 43.5,22.5 42,21 44,21"/>
    <polygon points="52,9 52.5,10 53.5,10 52.8,10.7 53,11.7 52,11 51,11.7 51.2,10.7 50.5,10 51.5,10"/>
    <polygon points="50,17 50.5,18 51.5,18 50.8,18.7 51,19.7 50,19 49,19.7 49.2,18.7 48.5,18 49.5,18"/>
    <polygon points="50,24 50.5,25 51.5,25 50.8,25.7 51,26.7 50,26 49,26.7 49.2,25.7 48.5,25 49.5,25"/>
    <polygon points="55,20 55.5,21 56.5,21 55.8,21.7 56,22.7 55,22 54,22.7 54.2,21.7 53.5,21 54.5,21"/>
    <polygon points="38,20 38.5,21 39.5,21 38.8,21.7 39,22.7 38,22 37,22.7 37.2,21.7 36.5,21 37.5,21"/>
  </g>
</svg>
