<svg xmlns="http://www.w3.org/2000/svg" viewBox="0 0 60 40">
  <rect width="60" height="40" fill="#003399"/>
  <g fill="#FFCC00">
    <circle cx="30" cy="20" r="1.5"/>
    <circle cx="30" cy="11" r="1.5" transform="rotate(30 30 20)"/>
    <circle cx="30" cy="11" r="1.5" transform="rotate(60 30 20)"/>
    <circle cx="30" cy="11" r="1.5" transform="rotate(90 30 20)"/>
    <circle cx="30" cy="11" r="1.5" transform="rotate(120 30 20)"/>
    <circle cx="30" cy="11" r="1.5" transform="rotate(150 30 20)"/>
    <circle cx="30" cy="11" r="1.5" transform="rotate(180 30 20)"/>
    <circle cx="30" cy="11" r="1.5" transform="rotate(210 30 20)"/>
    <circle cx="30" cy="11" r="1.5" transform="rotate(240 30 20)"/>
    <circle cx="30" cy="11" r="1.5" transform="rotate(270 30 20)"/>
    <circle cx="30" cy="11" r="1.5" transform="rotate(300 30 20)"/>
    <circle cx="30" cy="11" r="1.5" transform="rotate(330 30 20)"/>
  </g>
</svg>
